<svg width="1679" height="335" fill="none" xmlns="http://www.w3.org/2000/svg"><path d="M1335.76 227.17s-255.81-7.172-451.843 29.884c-147.028 27.493-163.165 53.791-425.545 72.319-219.347 3.586-511.012 4.781-511.012 4.781l1.195 8.965 1175.625-1.793s5.98-2.988 12.55-7.172c19.13-10.16 60.97-29.286 130.89-47.814 191.26-50.204 510.42-40.642 510.42-40.642l2.39-11.356-444.67-7.172zm-536.719-25.103c202.609-74.71 530.739-70.526 735.739-58.573-41.84-4.183-116.55-10.758-247.44-20.321-242.65-17.93-373.545-28.688-488.299-7.769-115.351 21.516-176.912 63.353-241.46 87.858-82.48 31.079-148.822 54.986-192.452 60.365 63.354.598 283.896-5.977 433.912-61.56z" fill="#5772A0"/><path d="M800.25 205.655c-93.237 34.666-210.979 49.608-293.459 56.182-41.837 3.586-82.479 4.781-112.96 5.379 65.146 2.988 199.026 4.781 338.882-19.126 124.316-20.918 159.579-26.297 378.927-35.86 216.96-9.563 426.74 2.988 426.74 2.988l41.24-64.549c-197.83-14.344-561.82-25.102-779.37 54.986z" fill="#5772A0"/><path d="M1778.64 138.714c-267.75-26.298-450.64-43.033-544.48-50.205-25.1-1.793-52-4.183-80.09-7.172-138.66-12.55-310.788-28.09-447.656-4.184-48.411 8.368-88.456 17.93-127.305 26.298-93.237 21.517-173.923 40.044-339.479 43.033-101.007 1.793-163.166 2.391-205.003 2.391-19.723 0-35.263 0-48.412-.598 44.228 4.184 109.973 14.344 183.487 37.653 134.477 42.435 227.116 22.712 340.675-11.355 144.637-43.033 242.058-110.57 482.324-93.238 268.949 19.724 784.749 62.756 784.749 62.756l12.55.598-1.79-5.379-9.57-.598z" fill="#5772A0"/><path d="M-72.958 145.287v-1.793h26.895c43.033 1.196 91.444 1.793 285.689-1.195 164.958-2.988 245.644-21.516 338.284-42.435 38.849-8.965 78.296-17.93 127.305-26.298C842.68 49.062 1015.41 65.2 1154.07 77.75c28.09 2.39 54.99 4.781 80.09 7.172 93.83 7.172 276.72 24.505 544.48 50.205h1.2c-79.5-14.942-824.797-149.419-1126.623-133.88C334.059 17.386 190.019 123.772-59.81 128.553c-6.574 0-10.16.598-15.54 1.196l2.392 15.539z" fill="#5772A0"/></svg>