<svg width="314" height="164" fill="none" xmlns="http://www.w3.org/2000/svg"><g filter="url(#filter0_d)"><path fill-rule="evenodd" clip-rule="evenodd" d="M30 16c-5.523 0-10 4.477-10 10v94c0 5.523 4.477 10 10 10h72.576c.282 0 .557.011.838.036 2.833.251 19.558 1.785 30.524 4.012 6.55 1.33 15.685 3.848 20.242 5.141 1.845.524 3.795.524 5.64 0 4.557-1.293 13.692-3.811 20.242-5.141 10.967-2.227 27.691-3.761 30.524-4.012.281-.025.556-.036.838-.036H284c5.523 0 10-4.477 10-10V26c0-5.523-4.477-10-10-10H30z" fill="#fff"/></g><defs><filter id="filter0_d" x="0" y="0" width="314" height="163.582" filterUnits="userSpaceOnUse" color-interpolation-filters="sRGB"><feFlood flood-opacity="0" result="BackgroundImageFix"/><feColorMatrix in="SourceAlpha" values="0 0 0 0 0 0 0 0 0 0 0 0 0 0 0 0 0 0 127 0"/><feOffset dy="4"/><feGaussianBlur stdDeviation="10"/><feColorMatrix values="0 0 0 0 0.895833 0 0 0 0 0.877917 0 0 0 0 0.80625 0 0 0 0.6 0"/><feBlend in2="BackgroundImageFix" result="effect1_dropShadow"/><feBlend in="SourceGraphic" in2="effect1_dropShadow" result="shape"/></filter></defs></svg>