<svg width="90" height="85" fill="none" xmlns="http://www.w3.org/2000/svg"><g filter="url(#filter0_d)"><path fill-rule="evenodd" clip-rule="evenodd" d="M25 16a5 5 0 00-5 5v35a5 5 0 005 5h35a5 5 0 005-5v-9.05a10 10 0 013.318-7.44l.854-.766a1 1 0 000-1.488l-.854-.767A10 10 0 0165 29.05V21a5 5 0 00-5-5H25z" fill="#fff"/></g><path fill-rule="evenodd" clip-rule="evenodd" d="M34 29h18a2 2 0 012 2v14a2 2 0 01-2 2H34a2 2 0 01-2-2V31a2 2 0 012-2zm0 6.618V45h18v-9.382l-9 4.5-9-4.5zm0-2.236l9 4.5 9-4.5V31H34v2.382z" fill="#354F9A"/><defs><filter id="filter0_d" x="0" y="0" width="89.503" height="85" filterUnits="userSpaceOnUse" color-interpolation-filters="sRGB"><feFlood flood-opacity="0" result="BackgroundImageFix"/><feColorMatrix in="SourceAlpha" values="0 0 0 0 0 0 0 0 0 0 0 0 0 0 0 0 0 0 127 0"/><feOffset dy="4"/><feGaussianBlur stdDeviation="10"/><feColorMatrix values="0 0 0 0 0.70875 0 0 0 0 0.792422 0 0 0 0 0.9 0 0 0 0.7 0"/><feBlend in2="BackgroundImageFix" result="effect1_dropShadow"/><feBlend in="SourceGraphic" in2="effect1_dropShadow" result="shape"/></filter></defs></svg>