<svg width="90" height="85" fill="none" xmlns="http://www.w3.org/2000/svg"><g filter="url(#filter0_d)"><path fill-rule="evenodd" clip-rule="evenodd" d="M25 16a5 5 0 00-5 5v35a5 5 0 005 5h35a5 5 0 005-5v-9.05a10 10 0 013.318-7.44l.854-.766a1 1 0 000-1.488l-.854-.767A10 10 0 0165 29.05V21a5 5 0 00-5-5H25z" fill="#fff"/></g><path fill-rule="evenodd" clip-rule="evenodd" d="M41.857 34.338c.518-.698.703-1.434.117-2.084-1.314-1.84-2.199-2.977-2.753-3.525-1.055-1.042-2.79-.901-3.703-.001-.49.483-.657.65-1.16 1.16-2.806 2.808-1.095 8.742 3.454 13.295 4.547 4.552 10.48 6.264 13.292 3.45.465-.447.858-.84 1.169-1.169.895-.946 1.03-2.604-.006-3.681-.532-.553-1.617-1.395-3.534-2.766-.587-.525-1.283-.411-1.922.008-.307.201-.53.405-.952.827l-.767.767c-.1.1-1.471-.586-2.801-1.917-1.331-1.332-2.017-2.703-1.917-2.803l.767-.767c.134-.134.198-.2.28-.286.171-.18.313-.342.436-.508zm4.649 7.695l.766-.767c.232-.232.383-.375.505-.474 1.68 1.206 2.653 1.965 3.05 2.378.239.248.202.7-.006.92-.287.302-.66.675-1.117 1.117-1.818 1.819-6.608.437-10.479-3.438-3.872-3.876-5.253-8.666-3.449-10.471.502-.51.66-.669 1.144-1.145.182-.179.676-.219.896-.001.427.422 1.22 1.436 2.385 3.06a4.26 4.26 0 01-.228.255 9.633 9.633 0 01-.246.25l-.766.767c-1.303 1.303-.193 3.52 1.916 5.632 2.107 2.11 4.326 3.22 5.629 1.917z" fill="#354F9A"/><defs><filter id="filter0_d" x="0" y="0" width="89.503" height="85" filterUnits="userSpaceOnUse" color-interpolation-filters="sRGB"><feFlood flood-opacity="0" result="BackgroundImageFix"/><feColorMatrix in="SourceAlpha" values="0 0 0 0 0 0 0 0 0 0 0 0 0 0 0 0 0 0 127 0"/><feOffset dy="4"/><feGaussianBlur stdDeviation="10"/><feColorMatrix values="0 0 0 0 0.894118 0 0 0 0 0.878431 0 0 0 0 0.807843 0 0 0 0.7 0"/><feBlend in2="BackgroundImageFix" result="effect1_dropShadow"/><feBlend in="SourceGraphic" in2="effect1_dropShadow" result="shape"/></filter></defs></svg>