<svg width="90" height="85" fill="none" xmlns="http://www.w3.org/2000/svg"><g filter="url(#filter0_d)"><path fill-rule="evenodd" clip-rule="evenodd" d="M25 16a5 5 0 00-5 5v35a5 5 0 005 5h35a5 5 0 005-5v-9.05a10 10 0 013.318-7.44l.854-.766a1 1 0 000-1.488l-.854-.767A10 10 0 0165 29.05V21a5 5 0 00-5-5H25z" fill="#fff"/></g><path fill-rule="evenodd" clip-rule="evenodd" d="M43 49.328l.658-.575C49.188 43.923 52 39.707 52 36c0-5.25-4.097-9-9-9s-9 3.75-9 9c0 3.707 2.811 7.924 8.342 12.753l.658.575zm0-2.665c-4.693-4.23-7-7.814-7-10.663 0-4.103 3.164-7 7-7s7 2.897 7 7c0 2.85-2.307 6.434-7 10.663zM43 31a5 5 0 110 10 5 5 0 010-10zm-3 5a3 3 0 116 0 3 3 0 01-6 0z" fill="#354F9A"/><defs><filter id="filter0_d" x="0" y="0" width="89.503" height="85" filterUnits="userSpaceOnUse" color-interpolation-filters="sRGB"><feFlood flood-opacity="0" result="BackgroundImageFix"/><feColorMatrix in="SourceAlpha" values="0 0 0 0 0 0 0 0 0 0 0 0 0 0 0 0 0 0 127 0"/><feOffset dy="4"/><feGaussianBlur stdDeviation="10"/><feColorMatrix values="0 0 0 0 0.70875 0 0 0 0 0.792422 0 0 0 0 0.9 0 0 0 0.7 0"/><feBlend in2="BackgroundImageFix" result="effect1_dropShadow"/><feBlend in="SourceGraphic" in2="effect1_dropShadow" result="shape"/></filter></defs></svg>