<svg width="30" height="30" fill="none" xmlns="http://www.w3.org/2000/svg"><circle cx="15" cy="15" r="15" fill="#354F9A"/><path d="M12.22 15.86c0 1.24 1.24 2.34 3.06 2.78l.14-.24c-.64-.56-1-1.14-1-1.7 0-1.84 4.94-3.5 4.94-6.06 0-2-2.08-2.58-4-2.58-2.4 0-3.88.94-3.88 2.3 0 .72.52 1.08 1 1.08.92 0 1.36-.78 1.36-1.62 0-.42-.1-.86-.32-1.2.38-.14.88-.22 1.34-.22 1.02 0 2.02.46 2.02 1.68 0 2.08-4.66 3.78-4.66 5.78zM13.5 21c0 .68.56 1.22 1.24 1.22.7 0 1.24-.54 1.24-1.22 0-.7-.54-1.26-1.24-1.26-.68 0-1.24.56-1.24 1.26z" fill="#fff"/></svg>