<svg width="135" height="114" fill="none" xmlns="http://www.w3.org/2000/svg"><path d="M115.016 52.14c0 3.976 2.369 9.426 7.106 16.348 4.737 6.923 7.105 13.845 7.105 20.768 0 7.217-2.516 13.182-7.549 17.895-5.033 4.566-11.25 6.849-18.652 6.849-7.697 0-13.988-2.872-18.873-8.616-4.885-5.745-7.327-12.52-7.327-20.326 0-13.845 6.069-29.089 18.207-45.732C107.319 22.535 120.197 9.426 133.668 0L135 .884c-13.322 17.085-19.984 34.17-19.984 51.255zm-76.825 0c0 3.976 2.368 9.426 7.105 16.348 4.737 6.923 7.105 13.845 7.105 20.768 0 7.217-2.516 13.182-7.549 17.895-5.033 4.566-11.25 6.849-18.651 6.849-7.698 0-13.989-2.872-18.874-8.616C2.442 99.639 0 92.864 0 85.058 0 71.213 6.07 55.97 18.207 39.326 30.493 22.535 43.372 9.426 56.842 0l1.332.884c-13.322 17.085-19.983 34.17-19.983 51.255z" fill="#E6EDF6"/></svg>