<svg width="270" height="62" fill="none" xmlns="http://www.w3.org/2000/svg"><path d="M204.252 32.882s-37.026-1.038-65.402 4.325c-21.281 3.98-23.617 7.786-61.596 10.468-31.749.519-73.966.692-73.966.692l.173 1.298 170.166-.26s.866-.432 1.817-1.038c2.769-1.47 8.824-4.239 18.946-6.92 27.683-7.268 73.88-5.884 73.88-5.884l.346-1.643-64.364-1.038zm-77.687-3.634c29.327-10.814 76.821-10.208 106.495-8.478-6.056-.605-16.87-1.557-35.816-2.941-35.123-2.595-54.069-4.153-70.679-1.125-16.697 3.115-25.607 9.17-34.95 12.717-11.939 4.499-21.541 7.96-27.857 8.738 9.17.087 41.093-.865 62.807-8.91z" fill="#fff"/><path d="M126.738 29.767c-13.495 5.018-30.538 7.18-42.476 8.132-6.056.52-11.939.692-16.35.779 9.429.433 28.807.692 49.051-2.768 17.994-3.028 23.098-3.807 54.848-5.191 31.403-1.384 61.768.432 61.768.432l5.969-9.343c-28.635-2.076-81.32-3.633-112.81 7.96z" fill="#fff"/><path d="M268.357 20.078c-38.757-3.806-65.229-6.229-78.811-7.267-3.634-.26-7.527-.605-11.593-1.038-20.07-1.817-44.985-4.066-64.796-.606-7.007 1.212-12.804 2.596-18.427 3.807-13.496 3.114-25.175 5.796-49.138 6.229-14.62.26-23.617.346-29.673.346-2.855 0-5.104 0-7.008-.087 6.402.606 15.918 2.076 26.56 5.45 19.464 6.143 32.873 3.288 49.31-1.643 20.936-6.23 35.037-16.005 69.815-13.496 38.929 2.855 113.588 9.084 113.588 9.084l1.817.086-.26-.779-1.384-.086z" fill="#fff"/><path d="M.346 21.03v-.26h3.893c6.229.173 13.236.26 41.352-.173 23.877-.432 35.556-3.114 48.965-6.142 5.623-1.298 11.333-2.595 18.427-3.807 19.897-3.547 44.899-1.21 64.97.606 4.066.346 7.959.692 11.592 1.038 13.582 1.038 40.054 3.547 78.811 7.267h.173C257.023 17.396 149.144-2.069 105.457.181 59.26 2.516 38.411 17.915 2.249 18.607c-.951 0-1.47.087-2.249.173l.346 2.25zm10.381 31.835H8.39v6.402h-.95v-6.402H5.19v-.778h5.537v.778zm2.681 6.489c-.692 0-1.297-.26-1.73-.692a2.85 2.85 0 01-.692-1.903v-.173c0-.52.087-1.038.346-1.384.173-.433.52-.78.865-.952.346-.26.779-.346 1.211-.346.693 0 1.212.26 1.644.692.346.432.606 1.125.606 1.99v.346h-3.634c0 .519.173.951.433 1.297s.692.52 1.124.52c.346 0 .606-.087.779-.174.26-.173.433-.346.606-.519l.519.433a2.865 2.865 0 01-2.077.865zm-.173-4.758c-.346 0-.692.173-.951.432-.26.26-.433.606-.433 1.125h2.682v-.086c0-.433-.173-.865-.346-1.039-.26-.346-.52-.432-.952-.432zm6.575 4.671c-.086-.086-.086-.26-.086-.606-.432.433-.951.693-1.557.693-.519 0-.952-.173-1.298-.433-.346-.26-.519-.692-.519-1.125 0-.519.173-.951.606-1.297s1.038-.433 1.817-.433h.865v-.432c0-.346-.087-.606-.26-.779-.173-.173-.432-.26-.865-.26-.346 0-.606.087-.779.26-.259.173-.346.346-.346.606h-.951c0-.26.086-.52.26-.779.172-.26.432-.433.778-.606.346-.173.692-.26 1.038-.26.606 0 1.125.174 1.47.433.347.346.52.692.52 1.298v2.422c0 .52.086.865.173 1.212v.086h-.865zm-1.47-.692c.26 0 .52-.087.779-.26.26-.173.432-.346.519-.605v-1.125h-.692c-1.125 0-1.644.346-1.644.952 0 .26.087.519.26.692.172.26.432.346.778.346zm7.612-3.893h-1.817v4.585h-.951v-4.585h-1.73v-.778h4.498v.778zm5.364 1.99c0 .778-.173 1.47-.519 1.99-.346.519-.865.778-1.47.778-.693 0-1.125-.173-1.558-.605v2.595h-.951v-7.44h.865v.519c.346-.433.865-.692 1.557-.692.606 0 1.125.26 1.557.692.346.519.52 1.211.52 2.163zm-.865-.173c0-.606-.086-1.038-.346-1.471a1.233 1.233 0 00-1.038-.519c-.52 0-.952.26-1.211.779v2.595c.26.519.692.692 1.297.692.433 0 .779-.173 1.039-.52.086-.345.26-.864.26-1.556zm4.326 0c0-.52.087-.952.346-1.384.173-.433.52-.779.865-.952.346-.26.779-.346 1.298-.346.692 0 1.298.26 1.73.779.433.519.692 1.21.692 1.99v.086c0 .519-.086.951-.26 1.384a1.868 1.868 0 01-.864.952c-.347.26-.779.346-1.298.346-.692 0-1.298-.26-1.73-.779-.606-.52-.779-1.125-.779-2.076zm.865.173c0 .605.173 1.038.433 1.47.26.346.605.52 1.124.52.433 0 .866-.173 1.125-.52.26-.346.433-.865.433-1.557 0-.605-.173-1.038-.433-1.384-.26-.346-.605-.519-1.125-.519-.432 0-.778.173-1.124.52-.26.259-.433.778-.433 1.47zm9.516 2.595h-.952v-4.585h-2.422v4.585h-.952v-5.363h4.326v5.363zm3.72.087c-.692 0-1.298-.26-1.73-.692a2.85 2.85 0 01-.692-1.903v-.173c0-.52.086-1.038.346-1.384a1.87 1.87 0 01.865-.952c.346-.26.779-.346 1.211-.346.692 0 1.211.26 1.644.692.346.432.605 1.125.605 1.99v.346h-3.633c0 .519.173.951.432 1.297.26.346.693.52 1.125.52.346 0 .606-.087.779-.174.26-.173.432-.346.605-.519l.52.433a2.866 2.866 0 01-2.077.865zm-.173-4.758c-.346 0-.692.173-.951.432-.26.26-.433.606-.433 1.125h2.682v-.086c0-.433-.173-.865-.346-1.039-.26-.346-.52-.432-.952-.432zm7.786 2.076c0 .779-.173 1.47-.52 1.99-.345.519-.864.779-1.47.779-.692 0-1.124-.174-1.557-.606v2.595h-.952v-7.44h.866l.086.606c.346-.433.865-.692 1.557-.692.606 0 1.125.26 1.557.692.26.432.433 1.125.433 2.076zm-.952-.173c0-.605-.086-1.038-.346-1.47a1.233 1.233 0 00-1.038-.52c-.519 0-.951.26-1.21.779v2.595c.259.52.691.692 1.297.692.432 0 .778-.173 1.038-.519.173-.346.26-.865.26-1.557zm3.114-.779h1.385c.605 0 1.124.174 1.47.433.346.26.52.692.52 1.298 0 .519-.174.951-.52 1.297-.346.346-.865.52-1.47.52h-2.25v-5.364h.952v1.816h-.087zm0 .78v1.989h1.385c.346 0 .605-.087.778-.26.173-.173.26-.432.26-.692 0-.26-.087-.519-.26-.692-.173-.173-.432-.26-.778-.26h-1.385V56.5zm5.278 2.767h-.952v-5.363h.952v5.363zm7.526-5.363h.951v5.363h-.951v-3.893l-2.509 3.893h-.952v-5.363h.952v3.893l2.509-3.893zm7.268.346c.692 0 1.211.26 1.644.692.433.432.606 1.038.606 1.816v.087c0 .52-.087.952-.26 1.384-.173.433-.433.692-.865.952-.346.26-.779.346-1.298.346-.692 0-1.298-.26-1.73-.692a2.85 2.85 0 01-.692-1.904v-.691c0-1.125.173-1.99.606-2.682.432-.693 1.038-1.038 1.816-1.212.433-.086.779-.173.952-.26.173-.086.26-.259.26-.518h.778c0 .432-.087.692-.26.952-.173.259-.519.432-.865.519l-.692.173c-.519.086-.951.346-1.21.692-.26.346-.433.692-.52 1.21.432-.605 1.038-.864 1.73-.864zm-.173.692c-.432 0-.778.173-1.038.432-.26.26-.432.692-.432 1.212v.086c0 .606.172 1.038.432 1.384.26.346.606.52 1.038.52.433 0 .779-.174 1.038-.52.26-.346.433-.865.433-1.47 0-.52-.173-.952-.433-1.212a1.433 1.433 0 00-1.038-.432zm6.748 4.325c-.087-.086-.087-.26-.087-.606-.433.433-.952.693-1.558.693-.519 0-.951-.173-1.297-.433s-.52-.692-.52-1.125c0-.519.174-.951.606-1.297.433-.346 1.038-.433 1.817-.433h.865v-.432c0-.346-.087-.606-.26-.779-.172-.173-.432-.26-.865-.26-.346 0-.605.087-.778.26-.26.173-.346.346-.346.606h-.952c0-.26.087-.52.26-.779.173-.26.432-.433.778-.606.346-.173.692-.26 1.038-.26.606 0 1.125.174 1.471.433.346.26.52.692.52 1.298v2.422c0 .52.086.865.172 1.212v.086H85.3zm-1.558-.692c.26 0 .519-.087.778-.26.26-.173.433-.346.52-.605v-1.125h-.693c-1.124 0-1.643.346-1.643.952 0 .26.086.519.26.692.259.26.518.346.778.346zm8.131-4.671v5.363h-.951v-4.585h-1.817l-.086 1.99c-.087.952-.174 1.557-.433 1.99-.26.432-.606.605-1.211.605h-.346v-.778h.26c.259 0 .518-.173.605-.52.086-.345.173-.864.26-1.73l.086-2.249h3.633v-.086zm3.635 5.45c-.692 0-1.297-.26-1.73-.692a2.85 2.85 0 01-.692-1.903v-.173c0-.52.086-1.038.346-1.384a1.87 1.87 0 01.865-.952c.346-.26.779-.346 1.211-.346.692 0 1.211.26 1.644.692.346.432.605 1.125.605 1.99v.346h-3.633c0 .519.173.951.433 1.297s.692.52 1.124.52c.346 0 .606-.087.779-.174.26-.173.432-.346.605-.519l.52.433c-.433.519-1.125.865-2.077.865zm-.086-4.758c-.346 0-.692.173-.952.432-.26.26-.432.606-.432 1.125h2.681v-.086c0-.433-.173-.865-.346-1.039-.26-.346-.519-.432-.951-.432zm7.178.086h-1.816v4.585h-.952v-4.585h-1.73v-.778h4.498v.778zm4.154 4.585c-.086-.086-.086-.26-.086-.606-.433.433-.952.693-1.557.693-.519 0-.952-.173-1.298-.433-.346-.26-.519-.692-.519-1.125 0-.519.173-.951.606-1.297.432-.346 1.038-.433 1.816-.433h.865v-.432c0-.346-.086-.606-.259-.779-.173-.173-.433-.26-.865-.26-.346 0-.606.087-.779.26-.259.173-.346.346-.346.606h-.952c0-.26.087-.52.26-.779.173-.26.433-.433.779-.606.346-.173.692-.26 1.038-.26.605 0 1.124.174 1.47.433.346.346.519.692.519 1.298v2.422c0 .52.087.865.173 1.212v.086h-.865zm-1.557-.692c.26 0 .519-.087.779-.26.259-.173.432-.346.519-.605v-1.125h-.692c-1.125 0-1.644.346-1.644.952 0 .26.087.519.26.692.259.26.519.346.778.346zm11.765-1.73c-.087.779-.346 1.384-.865 1.817-.519.432-1.211.692-2.077.692-.951 0-1.643-.346-2.162-.952-.519-.605-.779-1.47-.779-2.595v-.433c0-.692.087-1.297.346-1.816.26-.52.606-.952 1.038-1.211a2.99 2.99 0 011.557-.433c.866 0 1.471.26 1.99.692.519.433.779 1.038.865 1.903h-1.47c0-.432-.173-.778-.346-1.038-.26-.173-.519-.346-1.039-.346-.519 0-.865.173-1.124.52-.26.345-.346.864-.346 1.643v.519c0 .779.086 1.384.346 1.73.259.346.605.52 1.124.52.433 0 .779-.087 1.039-.347.259-.173.346-.519.346-.951h1.557v.086zm3.375 2.509a2.85 2.85 0 01-1.904-.693c-.519-.519-.778-1.124-.778-1.903v-.173c0-.519.086-1.038.346-1.47.173-.433.519-.779.865-.952.346-.26.779-.346 1.298-.346.692 0 1.297.26 1.73.692.432.432.605 1.125.605 1.99v.605h-3.374c.087.346.173.606.433.865.26.173.519.346.865.346.519 0 .952-.173 1.298-.605l.692.779c-.173.346-.519.519-.865.692a5.109 5.109 0 01-1.211.173zm-.173-4.413c-.26 0-.519.087-.692.26-.174.173-.26.433-.347.865h1.99v-.086c0-.346-.086-.606-.259-.779-.173-.173-.346-.26-.692-.26zm3.287 4.326v-5.363h2.249c.692 0 1.298.086 1.644.346.346.26.605.605.605 1.124 0 .26-.086.433-.259.693a1.888 1.888 0 01-.692.432c.346.087.692.173.865.433.259.173.346.432.346.778 0 .52-.173.865-.519 1.125-.346.26-.952.432-1.644.432h-2.595zm1.384-3.2h.865c.519 0 .779-.173.779-.52a.663.663 0 00-.173-.432c-.173-.087-.346-.087-.606-.087h-.779v1.039h-.086zm0 .951v1.038h1.125c.519 0 .778-.173.778-.519 0-.346-.259-.519-.692-.519h-1.211zm7.354 2.249c-.087-.086-.087-.26-.173-.519-.346.346-.779.606-1.384.606-.519 0-.952-.173-1.298-.433-.346-.346-.519-.692-.519-1.124 0-.606.173-1.039.606-1.298.432-.346 1.038-.433 1.816-.433h.692v-.346c0-.26-.086-.432-.173-.605-.086-.173-.346-.26-.605-.26-.26 0-.433.087-.606.173-.173.087-.173.26-.173.433h-1.471c0-.346.087-.606.26-.865.173-.26.433-.433.779-.606.346-.173.778-.26 1.211-.26.692 0 1.211.174 1.557.52.346.346.606.778.606 1.384v2.335c0 .52.086.866.173 1.125v.087h-1.298v.086zm-1.211-1.038c.173 0 .432-.087.605-.173.173-.087.346-.26.433-.346v-.952h-.519c-.692 0-1.125.26-1.125.779v.087c0 .172.087.345.173.432.087.173.26.173.433.173zm5.708 0c.26 0 .519-.087.606-.26a.785.785 0 00.259-.605h1.298c0 .346-.087.692-.26 1.038-.173.26-.432.519-.778.692-.346.173-.692.26-1.125.26-.778 0-1.384-.26-1.817-.693-.432-.519-.692-1.124-.692-1.99v-.086c0-.865.26-1.47.692-1.99.433-.519 1.039-.778 1.817-.778.692 0 1.211.173 1.644.605.432.347.605.866.605 1.558h-1.297c0-.26-.087-.52-.26-.692-.173-.173-.346-.26-.692-.26s-.605.087-.778.346c-.173.26-.26.606-.26 1.211v.173c0 .52.087.952.26 1.211.173.087.432.26.778.26zm7.526-3.201h-1.73v4.24h-1.471v-4.24h-1.644v-1.124h4.845v1.124zm.348 1.471c0-.52.086-1.038.346-1.384.173-.433.519-.779.865-.952.346-.26.865-.346 1.297-.346.692 0 1.298.26 1.731.692.432.432.692 1.038.778 1.817v.346c0 .778-.259 1.47-.692 1.99-.432.519-1.038.778-1.817.778-.778 0-1.384-.26-1.816-.779-.433-.519-.692-1.21-.692-2.162zm1.384.173c0 .519.086.865.259 1.124.173.26.433.433.779.433.346 0 .605-.173.778-.433.173-.26.26-.692.26-1.297 0-.52-.087-.865-.26-1.125-.173-.26-.432-.433-.778-.433-.346 0-.606.174-.779.433-.086.26-.259.692-.259 1.298zm9.169 2.595h-1.471v-4.239h-1.817v4.24h-1.297v-5.364h4.671v5.363h-.086zm.951-2.768c0-.52.087-1.038.346-1.384.173-.433.519-.779.865-.952.346-.26.865-.346 1.298-.346.692 0 1.298.26 1.73.692.433.432.692 1.038.779 1.817v.346c0 .778-.26 1.47-.692 1.99-.433.519-1.038.778-1.817.778-.779 0-1.384-.26-1.817-.779-.519-.519-.692-1.21-.692-2.162zm1.384.173c0 .519.087.865.26 1.124.173.26.432.433.779.433.346 0 .605-.173.778-.433.173-.26.26-.692.26-1.297 0-.52-.087-.865-.26-1.125-.173-.26-.432-.433-.778-.433-.347 0-.606.174-.779.433-.173.26-.26.692-.26 1.298zm9.084-2.768v5.363h-1.471v-4.239h-1.297l-.087 1.644c-.086.865-.259 1.557-.519 1.903-.259.433-.692.606-1.298.606h-.519v-1.125h.173c.26 0 .433-.173.606-.432.086-.26.173-.779.259-1.47l.087-2.25h4.066zm2.597 1.556h1.038c.432 0 .865.087 1.211.26.346.174.605.346.778.693.173.26.26.605.26 1.038 0 .605-.173 1.038-.606 1.384-.432.346-.951.519-1.73.519h-2.422V53.99h1.471v1.47zm0 1.126v1.47h1.038c.259 0 .519-.086.692-.173.173-.173.259-.346.259-.519 0-.26-.086-.432-.259-.519-.173-.173-.346-.173-.692-.173h-1.038v-.086z" fill="#fff"/></svg>