<svg width="270" height="62" fill="none" xmlns="http://www.w3.org/2000/svg"><path d="M204.252 32.882s-37.026-1.038-65.402 4.325c-21.281 3.98-23.617 7.786-61.596 10.468-31.749.519-73.966.692-73.966.692l.173 1.298 170.166-.26s.866-.432 1.817-1.038c2.769-1.47 8.824-4.239 18.946-6.92 27.683-7.268 73.88-5.884 73.88-5.884l.346-1.643-64.364-1.038zm-77.687-3.634c29.327-10.814 76.821-10.208 106.495-8.478-6.056-.605-16.87-1.557-35.816-2.941-35.123-2.596-54.069-4.153-70.679-1.125-16.697 3.114-25.607 9.17-34.95 12.717-11.939 4.499-21.541 7.96-27.857 8.738 9.17.086 41.093-.865 62.807-8.91z" fill="#354F9A"/><path d="M126.738 29.767c-13.495 5.018-30.538 7.18-42.476 8.132-6.056.52-11.939.692-16.35.779 9.429.433 28.807.692 49.051-2.768 17.994-3.028 23.098-3.807 54.847-5.191 31.404-1.384 61.769.432 61.769.432l5.969-9.343c-28.635-2.076-81.32-3.633-112.81 7.96z" fill="#354F9A"/><path d="M268.357 20.078c-38.757-3.806-65.229-6.229-78.811-7.267-3.634-.26-7.527-.605-11.593-1.038-20.07-1.817-44.985-4.066-64.796-.606-7.007 1.212-12.804 2.596-18.427 3.807-13.496 3.114-25.175 5.796-49.138 6.229-14.62.26-23.617.346-29.673.346-2.855 0-5.104 0-7.008-.087 6.402.606 15.918 2.076 26.56 5.45 19.464 6.143 32.873 3.288 49.31-1.643 20.936-6.23 35.037-16.005 69.815-13.496 38.929 2.855 113.588 9.084 113.588 9.084l1.817.086-.26-.779-1.384-.086z" fill="#354F9A"/><path d="M.346 21.03v-.26h3.893c6.229.173 13.236.26 41.352-.173 23.877-.432 35.556-3.114 48.965-6.142 5.623-1.298 11.333-2.595 18.427-3.807 19.897-3.547 44.899-1.21 64.97.606 4.066.346 7.959.692 11.592 1.038 13.582 1.038 40.054 3.547 78.811 7.267h.173C257.023 17.396 149.144-2.069 105.457.181 59.26 2.516 38.411 17.915 2.249 18.607c-.951 0-1.47.087-2.249.173l.346 2.25zm10.381 31.836H8.39v6.401h-.952v-6.401H5.19v-.779h5.537v.779zm2.681 6.488c-.692 0-1.297-.26-1.73-.692a2.85 2.85 0 01-.692-1.903v-.173c0-.52.086-1.038.346-1.384.173-.433.52-.78.865-.952.346-.26.779-.346 1.211-.346.692 0 1.211.26 1.644.692.346.432.606 1.125.606 1.99v.346h-3.634c0 .519.173.951.433 1.297s.692.52 1.124.52c.346 0 .606-.087.779-.174.26-.173.432-.346.606-.519l.519.433a2.865 2.865 0 01-2.077.865zm-.173-4.758c-.346 0-.692.173-.951.432-.26.26-.433.606-.433 1.125h2.682v-.086c0-.433-.173-.865-.346-1.039-.26-.346-.52-.432-.952-.432zm6.575 4.672c-.086-.087-.086-.26-.086-.606-.432.432-.951.692-1.557.692-.52 0-.952-.173-1.298-.432-.346-.26-.519-.693-.519-1.125 0-.52.173-.952.606-1.298.432-.346 1.038-.432 1.817-.432h.865v-.433c0-.346-.087-.605-.26-.779-.173-.172-.432-.259-.865-.259-.346 0-.606.087-.779.26-.26.172-.346.346-.346.605h-.951c0-.26.086-.519.26-.779.172-.259.432-.432.778-.605.346-.173.692-.26 1.038-.26.606 0 1.125.173 1.47.433.347.346.52.692.52 1.298v2.422c0 .519.086.865.173 1.211v.087h-.865zm-1.47-.693c.26 0 .52-.086.779-.26.26-.172.432-.345.519-.605v-1.124h-.692c-1.125 0-1.644.346-1.644.951 0 .26.086.52.26.692.172.26.432.346.778.346zm7.612-3.893h-1.817v4.585h-.951v-4.585h-1.73v-.778h4.498v.778zm5.364 1.99c0 .779-.173 1.47-.519 1.99-.346.519-.865.779-1.47.779-.693 0-1.125-.173-1.558-.606v2.595h-.951v-7.44h.865v.52c.346-.433.865-.693 1.557-.693.606 0 1.125.26 1.557.693.346.519.52 1.21.52 2.162zm-.865-.173c0-.605-.086-1.038-.346-1.47a1.233 1.233 0 00-1.038-.52c-.52 0-.952.26-1.211.78v2.594c.26.52.692.692 1.297.692.433 0 .779-.173 1.039-.519.086-.346.26-.865.26-1.557zm4.326.001c0-.52.087-.952.346-1.385.173-.433.52-.779.865-.952.346-.26.779-.346 1.298-.346.692 0 1.297.26 1.73.779.433.519.692 1.211.692 1.99v.086c0 .52-.086.952-.26 1.384a1.875 1.875 0 01-.864.952c-.347.26-.78.346-1.298.346-.692 0-1.298-.26-1.73-.779-.606-.519-.779-1.124-.779-2.076zm.865.172c0 .606.173 1.038.433 1.47.26.347.605.52 1.124.52.433 0 .865-.173 1.125-.52.26-.345.433-.864.433-1.556 0-.606-.173-1.038-.433-1.384-.26-.346-.606-.52-1.125-.52-.432 0-.778.173-1.124.52-.26.26-.433.778-.433 1.47zm9.516 2.595h-.952v-4.585h-2.422v4.585h-.952v-5.363h4.326v5.363zm3.72.087c-.692 0-1.298-.26-1.73-.692a2.85 2.85 0 01-.692-1.903v-.173c0-.52.086-1.038.346-1.384a1.87 1.87 0 01.865-.952c.346-.26.779-.346 1.211-.346.692 0 1.211.26 1.644.692.346.432.605 1.125.605 1.99v.346h-3.633c0 .519.173.951.432 1.297.26.346.693.52 1.125.52.346 0 .606-.087.779-.174.26-.173.432-.346.605-.519l.52.433a2.866 2.866 0 01-2.077.865zm-.173-4.758c-.346 0-.692.173-.951.432-.26.26-.433.606-.433 1.125h2.682v-.086c0-.433-.173-.865-.346-1.039-.26-.346-.52-.432-.952-.432zm7.785 2.076c0 .779-.172 1.47-.518 1.99-.346.519-.865.779-1.47.779-.693 0-1.126-.174-1.558-.606v2.595h-.952v-7.44h.866l.086.606c.346-.433.865-.692 1.557-.692.606 0 1.125.26 1.557.692.26.432.433 1.125.433 2.076zm-.95-.173c0-.605-.087-1.038-.347-1.47a1.233 1.233 0 00-1.038-.52c-.519 0-.952.26-1.211.779v2.595c.26.52.692.692 1.298.692.432 0 .778-.173 1.038-.519.173-.346.26-.865.26-1.557zm3.113-.779h1.385c.605 0 1.124.174 1.47.433.346.26.52.692.52 1.298 0 .519-.174.951-.52 1.297-.346.346-.865.52-1.47.52h-2.25v-5.364h.952v1.816h-.087zm0 .78v1.989h1.385c.346 0 .605-.087.778-.26.173-.173.26-.432.26-.692 0-.26-.087-.519-.26-.692-.173-.173-.433-.26-.779-.26h-1.384V56.5zm5.278 2.767h-.952v-5.363h.952v5.363zm7.526-5.363h.951v5.363h-.951v-3.893l-2.51 3.893h-.95v-5.363h.95v3.893l2.51-3.893zm7.268.346c.692 0 1.211.26 1.644.692.432.433.605 1.038.605 1.817v.086c0 .52-.086.952-.26 1.384-.172.433-.432.693-.864.952-.346.26-.779.346-1.298.346-.692 0-1.298-.26-1.73-.692a2.85 2.85 0 01-.692-1.903v-.692c0-1.125.173-1.99.605-2.682.433-.692 1.038-1.038 1.817-1.211.433-.087.779-.173.952-.26.173-.086.26-.26.26-.519h.778c0 .433-.087.692-.26.952-.173.26-.519.432-.865.519l-.692.173c-.519.086-.951.346-1.211.692-.26.346-.433.692-.52 1.211.433-.605 1.039-.865 1.731-.865zm-.173.692a1.43 1.43 0 00-1.038.433c-.26.26-.433.692-.433 1.21v.087c0 .606.173 1.038.433 1.384.26.347.606.52 1.038.52a1.23 1.23 0 001.038-.52c.26-.346.433-.865.433-1.47 0-.52-.173-.952-.433-1.211a1.433 1.433 0 00-1.038-.433zm6.747 4.326c-.087-.087-.087-.26-.087-.606-.432.432-.951.692-1.557.692-.519 0-.951-.173-1.297-.432-.346-.26-.52-.693-.52-1.125 0-.52.174-.952.606-1.298.433-.346 1.038-.432 1.817-.432h.865v-.433c0-.346-.087-.605-.26-.779-.173-.172-.432-.259-.865-.259-.346 0-.605.087-.778.26-.26.172-.346.346-.346.605h-.952c0-.26.087-.519.26-.779.173-.259.432-.432.778-.605.346-.173.692-.26 1.038-.26.606 0 1.125.173 1.471.433.346.26.52.692.52 1.298v2.422c0 .519.086.865.172 1.211v.087H85.3zm-1.557-.693c.26 0 .519-.086.778-.26.26-.172.433-.345.52-.605v-1.124h-.693c-1.124 0-1.643.346-1.643.951 0 .26.086.52.26.692.259.26.518.346.778.346zm8.131-4.671v5.363h-.951v-4.585h-1.817l-.087 1.99c-.086.952-.173 1.557-.432 1.99-.26.432-.606.605-1.211.605h-.346v-.778h.26c.259 0 .518-.173.605-.52.086-.345.173-.864.26-1.73l.086-2.249h3.633v-.086zm3.635 5.45c-.692 0-1.297-.26-1.73-.692a2.85 2.85 0 01-.692-1.903v-.173c0-.52.086-1.038.346-1.384a1.87 1.87 0 01.865-.952c.346-.26.779-.346 1.211-.346.692 0 1.211.26 1.644.692.346.432.605 1.125.605 1.99v.346h-3.633c0 .519.173.951.433 1.297.259.346.692.52 1.124.52.346 0 .606-.087.779-.174.26-.173.432-.346.605-.519l.52.433c-.433.519-1.125.865-2.077.865zm-.086-4.758c-.346 0-.692.173-.952.432-.26.26-.433.606-.433 1.125h2.682v-.086c0-.433-.173-.865-.346-1.039-.26-.346-.519-.432-.951-.432zm7.178.086h-1.816v4.585h-.952v-4.585h-1.73v-.778h4.498v.778zm4.154 4.586c-.086-.087-.086-.26-.086-.606-.433.432-.952.692-1.557.692-.52 0-.952-.173-1.298-.432-.346-.26-.519-.693-.519-1.125 0-.52.173-.952.605-1.298.433-.346 1.039-.432 1.817-.432h.865v-.433c0-.346-.086-.605-.259-.779-.173-.172-.433-.259-.865-.259-.346 0-.606.087-.779.26-.26.172-.346.346-.346.605h-.952c0-.26.087-.519.26-.779.173-.259.432-.432.778-.605a2.31 2.31 0 011.039-.26c.605 0 1.124.173 1.47.433.346.346.519.692.519 1.298v2.422c0 .519.087.865.173 1.211v.087h-.865zm-1.557-.693c.26 0 .519-.086.779-.26.259-.172.432-.345.519-.605v-1.124h-.692c-1.125 0-1.644.346-1.644.951 0 .26.086.52.259.692.26.26.52.346.779.346zm11.765-1.73c-.087.779-.346 1.385-.865 1.817-.519.433-1.211.692-2.077.692-.951 0-1.643-.346-2.162-.951-.519-.606-.779-1.471-.779-2.596v-.432c0-.692.087-1.298.346-1.817.26-.52.606-.952 1.038-1.211.433-.26.952-.433 1.557-.433.866 0 1.471.26 1.99.692.519.433.779 1.038.865 1.904h-1.47c0-.433-.173-.779-.346-1.038-.26-.174-.52-.346-1.039-.346-.519 0-.865.172-1.124.519-.26.346-.346.865-.346 1.643v.52c0 .778.086 1.383.346 1.73.259.346.605.519 1.124.519.433 0 .779-.087 1.039-.346.259-.173.346-.52.346-.952h1.557v.086zm3.375 2.509c-.779 0-1.385-.26-1.904-.692-.519-.52-.778-1.125-.778-1.903v-.173c0-.52.086-1.038.346-1.471.173-.433.519-.779.865-.952.346-.26.779-.346 1.298-.346.692 0 1.297.26 1.73.693.432.432.605 1.124.605 1.99v.605h-3.374c.087.346.173.605.433.865.26.173.519.346.865.346.519 0 .952-.173 1.298-.606l.692.779c-.173.346-.519.519-.865.692a5.104 5.104 0 01-1.211.173zm-.173-4.412c-.26 0-.519.087-.692.26-.174.173-.26.432-.347.865h1.99v-.087c0-.346-.086-.605-.259-.778-.173-.173-.346-.26-.692-.26zm3.287 4.325v-5.363h2.249c.692 0 1.298.086 1.644.346.346.26.605.605.605 1.124 0 .26-.086.433-.259.693a1.888 1.888 0 01-.692.432c.346.087.692.173.865.433.259.173.346.432.346.778 0 .52-.173.865-.519 1.125-.346.26-.952.432-1.644.432h-2.595zm1.384-3.2h.865c.519 0 .778-.173.778-.52a.658.658 0 00-.173-.432c-.173-.087-.346-.087-.605-.087h-.779v1.039h-.086zm0 .951v1.038h1.124c.52 0 .779-.173.779-.519 0-.346-.26-.519-.692-.519h-1.211zm7.354 2.25c-.087-.087-.087-.26-.173-.52-.346.347-.779.606-1.384.606a2.13 2.13 0 01-1.298-.432c-.346-.346-.519-.692-.519-1.125 0-.606.173-1.038.606-1.298.432-.346 1.038-.432 1.816-.432h.692v-.346c0-.26-.086-.433-.173-.606-.086-.173-.346-.26-.605-.26-.26 0-.433.087-.606.174-.173.086-.173.26-.173.432h-1.471c0-.346.087-.605.26-.865.173-.26.433-.432.779-.605.346-.173.778-.26 1.211-.26.692 0 1.211.173 1.557.519.346.346.606.779.606 1.384v2.336c0 .519.086.865.173 1.125v.086h-1.298v.087zm-1.211-1.038c.173 0 .432-.087.605-.173.173-.087.346-.26.433-.347v-.951h-.519c-.692 0-1.125.26-1.125.778v.087a.66.66 0 00.173.432c.087.174.26.174.433.174zm5.708 0c.26 0 .519-.087.606-.26a.785.785 0 00.259-.606h1.298c0 .346-.087.692-.26 1.039a2.04 2.04 0 01-.778.691c-.346.174-.692.26-1.125.26-.778 0-1.384-.26-1.817-.692-.432-.52-.692-1.125-.692-1.99v-.086c0-.865.26-1.471.692-1.99.433-.52 1.039-.779 1.817-.779.692 0 1.211.173 1.644.606.432.346.605.865.605 1.557h-1.297c0-.26-.087-.519-.26-.692-.173-.173-.346-.26-.692-.26s-.605.087-.778.347c-.173.26-.26.605-.26 1.21v.174c0 .519.087.951.26 1.21.173.087.432.26.778.26zm7.526-3.202h-1.73v4.24h-1.471v-4.24h-1.644v-1.124h4.845v1.124zm.348 1.472c0-.52.086-1.039.346-1.385.173-.433.519-.779.865-.952.346-.26.865-.346 1.297-.346.692 0 1.298.26 1.731.693.432.432.692 1.038.778 1.816v.346c0 .779-.259 1.47-.692 1.99-.433.519-1.038.779-1.817.779-.778 0-1.384-.26-1.816-.779-.433-.52-.692-1.211-.692-2.163zm1.384.172c0 .52.086.865.259 1.125.173.26.433.432.779.432.346 0 .605-.173.778-.432.173-.26.26-.692.26-1.298 0-.519-.087-.865-.26-1.124-.173-.26-.432-.433-.778-.433-.346 0-.606.173-.779.433-.086.26-.259.692-.259 1.297zm9.169 2.595h-1.471v-4.239h-1.817v4.24h-1.297v-5.364h4.671v5.363h-.086zm.951-2.767c0-.52.087-1.039.346-1.385.173-.433.519-.779.865-.952.346-.26.865-.346 1.298-.346.692 0 1.298.26 1.73.693.433.432.692 1.038.779 1.816v.346c0 .779-.26 1.47-.692 1.99-.433.519-1.038.779-1.817.779-.779 0-1.384-.26-1.817-.779-.519-.52-.692-1.211-.692-2.163zm1.384.172c0 .52.087.865.26 1.125.173.26.432.432.778.432.346 0 .606-.173.779-.432.173-.26.26-.692.26-1.298 0-.519-.087-.865-.26-1.124-.173-.26-.433-.433-.779-.433-.346 0-.605.173-.778.433-.173.26-.26.692-.26 1.297zm9.084-2.768v5.363h-1.471v-4.239h-1.297l-.087 1.644c-.086.865-.259 1.557-.519 1.903-.259.433-.692.606-1.298.606h-.519v-1.125h.173c.26 0 .433-.173.606-.432.086-.26.173-.779.259-1.47l.087-2.25h4.066zm2.596 1.557h1.039c.432 0 .865.087 1.211.26.346.173.605.346.778.692.173.26.26.605.26 1.038 0 .605-.173 1.038-.606 1.384-.432.346-.951.52-1.73.52h-2.422V53.99h1.47v1.47zm0 1.125v1.47h1.039c.259 0 .519-.086.692-.172.173-.174.259-.347.259-.52 0-.26-.086-.432-.259-.519-.173-.173-.346-.173-.692-.173h-1.039v-.086z" fill="#354F9A"/></svg>