<svg width="1679" height="620" viewBox="0 0 1679 620" fill="none" xmlns="http://www.w3.org/2000/svg">
<mask id="mask0" mask-type="alpha" maskUnits="userSpaceOnUse" x="0" y="0" width="1679" height="620">
<rect width="1679" height="620" fill="#5C77A6"/>
</mask>
<g mask="url(#mask0)">
<path d="M1335.76 512.17C1335.76 512.17 1079.95 504.998 883.917 542.054C736.889 569.547 720.752 595.845 458.372 614.373C239.025 617.959 -52.6402 619.154 -52.6402 619.154L-51.4448 628.119L1124.18 626.326C1124.18 626.326 1130.16 623.338 1136.73 619.154C1155.86 608.994 1197.7 589.868 1267.62 571.34C1458.88 521.136 1778.04 530.698 1778.04 530.698L1780.43 519.342L1335.76 512.17Z" fill="#5772A0"/>
<path d="M799.041 487.067C1001.65 412.357 1329.78 416.541 1534.78 428.494C1492.94 424.311 1418.23 417.736 1287.34 408.173C1044.69 390.243 913.795 379.485 799.041 400.404C683.69 421.92 622.129 463.757 557.581 488.262C475.101 519.341 408.759 543.248 365.129 548.627C428.483 549.225 649.025 542.65 799.041 487.067Z" fill="#5772A0"/>
<path d="M800.25 490.655C707.013 525.321 589.271 540.263 506.791 546.837C464.954 550.423 424.312 551.618 393.831 552.216C458.977 555.204 592.857 556.997 732.713 533.09C857.029 512.172 892.292 506.793 1111.64 497.23C1328.6 487.667 1538.38 500.218 1538.38 500.218L1579.62 435.669C1381.79 421.325 1017.8 410.567 800.25 490.655Z" fill="#5772A0"/>
<path d="M1778.64 423.714C1510.89 397.416 1328 380.681 1234.16 373.509C1209.06 371.716 1182.16 369.326 1154.07 366.337C1015.41 353.786 843.282 338.246 706.414 362.154C658.003 370.521 617.958 380.084 579.109 388.451C485.872 409.968 405.186 428.495 239.63 431.484C138.623 433.277 76.4644 433.875 34.6271 433.875C14.9038 433.875 -0.635748 433.875 -13.7846 433.277C30.4434 437.461 96.1877 447.621 169.702 470.93C304.179 513.365 396.818 493.642 510.377 459.575C655.014 416.542 752.435 349.005 992.701 366.337C1261.65 386.061 1777.45 429.093 1777.45 429.093L1790 429.691L1788.21 424.312L1778.64 423.714Z" fill="#5772A0"/>
<path d="M-72.9584 430.287V428.494C-63.3956 428.494 -55.0282 428.494 -46.063 428.494C-3.0304 429.69 45.3813 430.287 239.626 427.299C404.584 424.311 485.27 405.783 577.91 384.864C616.759 375.899 656.206 366.934 705.215 358.566C842.68 334.062 1015.41 350.199 1154.07 362.75C1182.16 365.141 1209.06 367.531 1234.16 369.922C1327.99 377.094 1510.88 394.427 1778.64 420.127H1779.84C1700.34 405.185 955.043 270.708 653.217 286.248C334.059 302.385 190.019 408.771 -59.8096 413.552C-66.384 413.552 -69.97 414.15 -75.3491 414.748L-72.9584 430.287Z" fill="#5772A0"/>
</g>
</svg>
