<svg width="1679" height="335" viewBox="0 0 1679 335" fill="none" xmlns="http://www.w3.org/2000/svg">
<path d="M1335.76 227.17C1335.76 227.17 1079.95 219.998 883.917 257.054C736.889 284.547 720.752 310.845 458.372 329.373C239.025 332.959 -52.6402 334.154 -52.6402 334.154L-51.4448 343.119L1124.18 341.326C1124.18 341.326 1130.16 338.338 1136.73 334.154C1155.86 323.994 1197.7 304.868 1267.62 286.34C1458.88 236.136 1778.04 245.698 1778.04 245.698L1780.43 234.342L1335.76 227.17Z" fill="#5772A0"/>
<path d="M799.041 202.067C1001.65 127.357 1329.78 131.541 1534.78 143.494C1492.94 139.311 1418.23 132.736 1287.34 123.173C1044.69 105.243 913.795 94.485 799.041 115.404C683.69 136.92 622.129 178.757 557.581 203.262C475.101 234.341 408.759 258.248 365.129 263.627C428.483 264.225 649.025 257.65 799.041 202.067Z" fill="#5772A0"/>
<path d="M800.25 205.655C707.013 240.321 589.271 255.263 506.791 261.837C464.954 265.423 424.312 266.618 393.831 267.216C458.977 270.204 592.857 271.997 732.713 248.09C857.029 227.172 892.292 221.793 1111.64 212.23C1328.6 202.667 1538.38 215.218 1538.38 215.218L1579.62 150.669C1381.79 136.325 1017.8 125.567 800.25 205.655Z" fill="#5772A0"/>
<path d="M1778.64 138.714C1510.89 112.416 1328 95.6814 1234.16 88.5093C1209.06 86.7163 1182.16 84.3256 1154.07 81.3372C1015.41 68.7861 843.282 53.2465 706.414 77.1535C658.003 85.521 617.958 95.0838 579.109 103.451C485.872 124.968 405.186 143.495 239.63 146.484C138.623 148.277 76.4644 148.875 34.6271 148.875C14.9038 148.875 -0.635748 148.875 -13.7846 148.277C30.4434 152.461 96.1877 162.621 169.702 185.93C304.179 228.365 396.818 208.642 510.377 174.575C655.014 131.542 752.435 64.0047 992.701 81.3372C1261.65 101.061 1777.45 144.093 1777.45 144.093L1790 144.691L1788.21 139.312L1778.64 138.714Z" fill="#5772A0"/>
<path d="M-72.9584 145.287V143.494C-63.3956 143.494 -55.0282 143.494 -46.063 143.494C-3.0304 144.69 45.3813 145.287 239.626 142.299C404.584 139.311 485.27 120.783 577.91 99.8641C616.759 90.8989 656.206 81.9338 705.215 73.5663C842.68 49.0616 1015.41 65.1989 1154.07 77.7501C1182.16 80.1408 1209.06 82.5315 1234.16 84.9222C1327.99 92.0943 1510.88 109.427 1778.64 135.127H1779.84C1700.34 120.185 955.043 -14.292 653.217 1.24759C334.059 17.3848 190.019 123.771 -59.8096 128.552C-66.384 128.552 -69.97 129.15 -75.3491 129.748L-72.9584 145.287Z" fill="#5772A0"/>
</svg>
