<svg width="314" height="164" viewBox="0 0 314 164" fill="none" xmlns="http://www.w3.org/2000/svg">
<g filter="url(#filter0_d)">
<path fill-rule="evenodd" clip-rule="evenodd" d="M30 16C24.4772 16 20 20.4772 20 26V120C20 125.523 24.4771 130 30 130H102.576C102.858 130 103.133 130.011 103.414 130.036C106.247 130.287 122.972 131.821 133.938 134.048C140.488 135.378 149.623 137.896 154.18 139.189C156.025 139.713 157.975 139.713 159.82 139.189C164.377 137.896 173.512 135.378 180.062 134.048C191.029 131.821 207.753 130.287 210.586 130.036C210.867 130.011 211.142 130 211.424 130H284C289.523 130 294 125.523 294 120V26C294 20.4772 289.523 16 284 16H30Z" fill="white"/>
</g>
<defs>
<filter id="filter0_d" x="0" y="0" width="314" height="163.582" filterUnits="userSpaceOnUse" color-interpolation-filters="sRGB">
<feFlood flood-opacity="0" result="BackgroundImageFix"/>
<feColorMatrix in="SourceAlpha" type="matrix" values="0 0 0 0 0 0 0 0 0 0 0 0 0 0 0 0 0 0 127 0"/>
<feOffset dy="4"/>
<feGaussianBlur stdDeviation="10"/>
<feColorMatrix type="matrix" values="0 0 0 0 0.895833 0 0 0 0 0.877917 0 0 0 0 0.80625 0 0 0 0.6 0"/>
<feBlend mode="normal" in2="BackgroundImageFix" result="effect1_dropShadow"/>
<feBlend mode="normal" in="SourceGraphic" in2="effect1_dropShadow" result="shape"/>
</filter>
</defs>
</svg>
