<svg width="90" height="85" viewBox="0 0 90 85" fill="none" xmlns="http://www.w3.org/2000/svg">
<g filter="url(#filter0_d)">
<path fill-rule="evenodd" clip-rule="evenodd" d="M25 16C22.2386 16 20 18.2386 20 21V56C20 58.7614 22.2386 61 25 61H60C62.7614 61 65 58.7614 65 56V46.9503C65 44.1118 66.2063 41.407 68.3182 39.5104L69.1716 38.7439C69.614 38.3466 69.614 37.6533 69.1716 37.2559L68.3182 36.4895C66.2063 34.5928 65 31.888 65 29.0495V21C65 18.2386 62.7614 16 60 16H25Z" fill="white"/>
</g>
<path fill-rule="evenodd" clip-rule="evenodd" d="M41.8566 34.338C42.3747 33.6398 42.5605 32.9039 41.9745 32.2544C40.6595 30.4144 39.7752 29.2766 39.2205 28.7286C38.1659 27.6869 36.4312 27.8278 35.5179 28.7277C35.0273 29.2111 34.8612 29.3771 34.3575 29.8887C31.5519 32.6958 33.2629 38.6301 37.8115 43.1831C42.359 47.7351 48.2926 49.447 51.1042 46.6339C51.569 46.1858 51.9625 45.7921 52.2729 45.464C53.1679 44.518 53.3038 42.8598 52.267 41.7825C51.7354 41.2302 50.6504 40.3885 48.733 39.017C48.1457 38.4919 47.4495 38.6057 46.8111 39.0245C46.504 39.226 46.2806 39.4297 45.8586 39.8521L45.0924 40.6188C44.9914 40.7198 43.621 40.0335 42.2908 38.7019C40.9598 37.3696 40.274 35.9991 40.3744 35.8987L41.1412 35.1315C41.2751 34.9975 41.3391 34.9326 41.4211 34.8463C41.5921 34.6666 41.7337 34.5035 41.8566 34.338ZM46.5058 42.033L47.2722 41.2662C47.5044 41.0337 47.6549 40.8908 47.7774 40.7923C49.457 41.9985 50.4298 42.7569 50.8271 43.1698C51.0657 43.4176 51.0286 43.8699 50.8212 44.0891C50.5342 44.3924 50.1614 44.7655 49.7038 45.2069C47.8858 47.0257 43.096 45.6437 39.2252 41.7692C35.3532 37.8934 33.9719 33.1029 35.7763 31.2975C36.2779 30.788 36.4369 30.6292 36.9204 30.1527C37.1017 29.9741 37.5956 29.934 37.8161 30.1518C38.2432 30.5737 39.0354 31.588 40.2008 33.2114C40.1404 33.2863 40.0651 33.3709 39.9734 33.4673C39.9061 33.538 39.85 33.5949 39.7274 33.7176L38.9614 34.484C37.6583 35.7871 38.7681 38.0048 40.877 40.1158C42.9845 42.2254 45.2031 43.3364 46.5058 42.033Z" fill="#354F9A"/>
<defs>
<filter id="filter0_d" x="0" y="0" width="89.5034" height="85" filterUnits="userSpaceOnUse" color-interpolation-filters="sRGB">
<feFlood flood-opacity="0" result="BackgroundImageFix"/>
<feColorMatrix in="SourceAlpha" type="matrix" values="0 0 0 0 0 0 0 0 0 0 0 0 0 0 0 0 0 0 127 0"/>
<feOffset dy="4"/>
<feGaussianBlur stdDeviation="10"/>
<feColorMatrix type="matrix" values="0 0 0 0 0.894118 0 0 0 0 0.878431 0 0 0 0 0.807843 0 0 0 0.7 0"/>
<feBlend mode="normal" in2="BackgroundImageFix" result="effect1_dropShadow"/>
<feBlend mode="normal" in="SourceGraphic" in2="effect1_dropShadow" result="shape"/>
</filter>
</defs>
</svg>
