<svg width="30" height="30" viewBox="0 0 30 30" fill="none" xmlns="http://www.w3.org/2000/svg">
<circle cx="15" cy="15" r="15" fill="#354F9A"/>
<path d="M12.22 15.86C12.22 17.1 13.46 18.2 15.28 18.64L15.42 18.4C14.78 17.84 14.42 17.26 14.42 16.7C14.42 14.86 19.36 13.2 19.36 10.64C19.36 8.64 17.28 8.06 15.36 8.06C12.96 8.06 11.48 9 11.48 10.36C11.48 11.08 12 11.44 12.48 11.44C13.4 11.44 13.84 10.66 13.84 9.82C13.84 9.4 13.74 8.96 13.52 8.62C13.9 8.48 14.4 8.4 14.86 8.4C15.88 8.4 16.88 8.86 16.88 10.08C16.88 12.16 12.22 13.86 12.22 15.86ZM13.5 21C13.5 21.68 14.06 22.22 14.74 22.22C15.44 22.22 15.98 21.68 15.98 21C15.98 20.3 15.44 19.74 14.74 19.74C14.06 19.74 13.5 20.3 13.5 21Z" fill="white"/>
</svg>
