<svg width="135" height="114" viewBox="0 0 135 114" fill="none" xmlns="http://www.w3.org/2000/svg">
<path d="M115.016 52.1395C115.016 56.1163 117.385 61.5659 122.122 68.4884C126.859 75.4109 129.227 82.3333 129.227 89.2558C129.227 96.4729 126.711 102.438 121.678 107.151C116.645 111.717 110.428 114 103.026 114C95.3289 114 89.0378 111.128 84.153 105.384C79.2681 99.6395 76.8257 92.8643 76.8257 85.0581C76.8257 71.2132 82.8947 55.969 95.0329 39.3256C107.319 22.5349 120.197 9.42636 133.668 0L135 0.883721C121.678 17.969 115.016 35.0543 115.016 52.1395ZM38.1908 52.1395C38.1908 56.1163 40.5592 61.5659 45.2961 68.4884C50.0329 75.4109 52.4013 82.3333 52.4013 89.2558C52.4013 96.4729 49.8849 102.438 44.852 107.151C39.8191 111.717 33.602 114 26.2007 114C18.5033 114 12.2122 111.128 7.3273 105.384C2.44243 99.6395 0 92.8643 0 85.0581C0 71.2132 6.06908 55.969 18.2072 39.3256C30.4934 22.5349 43.3717 9.42636 56.8421 0L58.1743 0.883721C44.852 17.969 38.1908 35.0543 38.1908 52.1395Z" fill="#E6EDF6"/>
</svg>
