<svg width="270" height="62" viewBox="0 0 270 62" fill="none" xmlns="http://www.w3.org/2000/svg">
<path d="M204.252 32.8816C204.252 32.8816 167.226 31.8435 138.85 37.2072C117.569 41.1867 115.233 44.9931 77.2545 47.675C45.5051 48.194 3.28784 48.3671 3.28784 48.3671L3.46086 49.6647L173.627 49.4052C173.627 49.4052 174.493 48.9726 175.444 48.3671C178.213 46.8964 184.268 44.128 194.39 41.4462C222.073 34.1793 268.27 35.5635 268.27 35.5635L268.616 33.9198L204.252 32.8816Z" fill="#354F9A"/>
<path d="M126.565 29.2481C155.892 18.4343 203.386 19.0399 233.06 20.7701C227.004 20.1645 216.19 19.2129 197.244 17.8287C162.121 15.2334 143.175 13.6762 126.565 16.7041C109.868 19.8185 100.958 25.8742 91.6146 29.4212C79.6762 33.9197 70.0735 37.3801 63.7582 38.1587C72.9283 38.2452 104.851 37.2936 126.565 29.2481Z" fill="#354F9A"/>
<path d="M126.738 29.7673C113.243 34.7849 96.2001 36.9477 84.2616 37.8993C78.2058 38.4184 72.3231 38.5914 67.9111 38.6779C77.3407 39.1105 96.7191 39.37 116.963 35.9096C134.957 32.8817 140.061 32.1031 171.81 30.7189C203.214 29.3348 233.579 31.1515 233.579 31.1515L239.548 21.8083C210.913 19.7321 158.228 18.1749 126.738 29.7673Z" fill="#354F9A"/>
<path d="M268.357 20.078C229.6 16.2715 203.128 13.8492 189.546 12.8111C185.912 12.5516 182.019 12.2055 177.953 11.773C157.883 9.95623 132.968 7.70695 113.157 11.1674C106.15 12.3785 100.353 13.7627 94.7301 14.9739C81.2345 18.0882 69.5555 20.7701 45.592 21.2026C30.9717 21.4622 21.9746 21.5487 15.9189 21.5487C13.064 21.5487 10.8147 21.5487 8.9115 21.4622C15.3133 22.0677 24.8295 23.5384 35.4703 26.9123C54.9352 33.0546 68.3444 30.1997 84.7814 25.2686C105.717 19.0399 119.818 9.26415 154.596 11.773C193.525 14.6278 268.184 20.8566 268.184 20.8566L270.001 20.9431L269.741 20.1645L268.357 20.078Z" fill="#354F9A"/>
<path d="M0.346043 21.0297V20.7701C1.73021 20.7701 2.94136 20.7701 4.23903 20.7701C10.4678 20.9432 17.4752 21.0297 45.5911 20.5971C69.4681 20.1646 81.1471 17.4827 94.5562 14.4549C100.179 13.1572 105.889 11.8595 112.983 10.6484C132.88 7.10144 157.882 9.43723 177.953 11.254C182.019 11.6 185.912 11.946 189.545 12.2921C203.127 13.3302 229.599 15.839 268.356 19.559H268.529C257.023 17.3962 149.144 -2.0687 105.457 0.180583C59.2598 2.51637 38.4108 17.9153 2.24928 18.6074C1.29766 18.6074 0.778596 18.6939 0 18.7804L0.346043 21.0297Z" fill="#354F9A"/>
<path d="M10.7268 52.8658H8.39102V59.2675H7.4394V52.8658H5.19012V52.0872H10.7268V52.8658Z" fill="#354F9A"/>
<path d="M13.4083 59.354C12.7162 59.354 12.1106 59.0945 11.678 58.6619C11.2455 58.1428 10.986 57.5373 10.986 56.7587V56.5856C10.986 56.0666 11.0725 55.5475 11.332 55.2015C11.505 54.7689 11.8511 54.4229 12.1971 54.2499C12.5432 53.9903 12.9757 53.9038 13.4083 53.9038C14.1003 53.9038 14.6194 54.1633 15.052 54.5959C15.398 55.0284 15.6575 55.7205 15.6575 56.5856V56.9317H12.0241C12.0241 57.4508 12.1971 57.8833 12.4566 58.2293C12.7162 58.5754 13.1487 58.7484 13.5813 58.7484C13.9273 58.7484 14.1869 58.6619 14.3599 58.5754C14.6194 58.4024 14.7924 58.2293 14.9655 58.0563L15.4845 58.4889C14.9655 59.0079 14.2734 59.354 13.4083 59.354ZM13.2352 54.5959C12.8892 54.5959 12.5432 54.7689 12.2836 55.0284C12.0241 55.288 11.8511 55.634 11.8511 56.1531H14.5329V56.0666C14.5329 55.634 14.3599 55.2015 14.1869 55.0284C13.9273 54.6824 13.6678 54.5959 13.2352 54.5959Z" fill="#354F9A"/>
<path d="M19.8107 59.2676C19.7242 59.181 19.7242 59.008 19.7242 58.662C19.2916 59.0945 18.7726 59.3541 18.167 59.3541C17.6479 59.3541 17.2154 59.181 16.8693 58.9215C16.5233 58.662 16.3503 58.2294 16.3503 57.7969C16.3503 57.2778 16.5233 56.8453 16.9559 56.4992C17.3884 56.1532 17.994 56.0667 18.7726 56.0667H19.6377V55.6341C19.6377 55.2881 19.5512 55.0285 19.3782 54.8555C19.2051 54.6825 18.9456 54.596 18.513 54.596C18.167 54.596 17.9075 54.6825 17.7345 54.8555C17.4749 55.0285 17.3884 55.2016 17.3884 55.4611H16.4368C16.4368 55.2016 16.5233 54.942 16.6963 54.6825C16.8693 54.423 17.1289 54.2499 17.4749 54.0769C17.821 53.9039 18.167 53.8174 18.513 53.8174C19.1186 53.8174 19.6377 53.9904 19.9837 54.2499C20.3298 54.596 20.5028 54.942 20.5028 55.5476V57.9699C20.5028 58.489 20.5893 58.835 20.6758 59.181V59.2676H19.8107ZM18.34 58.5755C18.5996 58.5755 18.8591 58.489 19.1186 58.3159C19.3782 58.1429 19.5512 57.9699 19.6377 57.7104V56.5857H18.9456C17.821 56.5857 17.3019 56.9318 17.3019 57.5373C17.3019 57.7969 17.3884 58.0564 17.5614 58.2294C17.7345 58.489 17.994 58.5755 18.34 58.5755Z" fill="#354F9A"/>
<path d="M25.9519 54.6824H24.1352V59.2675H23.1836V54.6824H21.4534V53.9038H25.9519V54.6824Z" fill="#354F9A"/>
<path d="M31.3162 56.6722C31.3162 57.4508 31.1432 58.1429 30.7971 58.662C30.4511 59.181 29.932 59.4406 29.3264 59.4406C28.6344 59.4406 28.2018 59.2676 27.7692 58.835V61.4303H26.8176V53.9904H27.6827V54.5095C28.0288 54.0769 28.5478 53.8174 29.2399 53.8174C29.8455 53.8174 30.3646 54.0769 30.7971 54.5095C31.1432 55.0285 31.3162 55.7206 31.3162 56.6722ZM30.4511 56.4992C30.4511 55.8936 30.3646 55.4611 30.105 55.0285C29.8455 54.6825 29.4995 54.5095 29.0669 54.5095C28.5478 54.5095 28.1153 54.769 27.8558 55.2881V57.8834C28.1153 58.4025 28.5478 58.5755 29.1534 58.5755C29.586 58.5755 29.932 58.4024 30.1915 58.0564C30.2781 57.7104 30.4511 57.1913 30.4511 56.4992Z" fill="#354F9A"/>
<path d="M34.777 56.4992C34.777 55.9802 34.8635 55.5476 35.1231 55.115C35.2961 54.6825 35.6421 54.3364 35.9882 54.1634C36.3342 53.9039 36.7668 53.8174 37.2858 53.8174C37.9779 53.8174 38.5835 54.0769 39.0161 54.596C39.4486 55.115 39.7082 55.8071 39.7082 56.5857V56.6722C39.7082 57.1913 39.6216 57.6239 39.4486 58.0564C39.2756 58.489 38.9296 58.835 38.5835 59.008C38.2375 59.2676 37.8049 59.3541 37.2858 59.3541C36.5938 59.3541 35.9882 59.0945 35.5556 58.5755C34.9501 58.0564 34.777 57.4508 34.777 56.4992ZM35.6421 56.6722C35.6421 57.2778 35.8152 57.7104 36.0747 58.1429C36.3342 58.489 36.6803 58.662 37.1993 58.662C37.6319 58.662 38.0644 58.489 38.324 58.1429C38.5835 57.7969 38.7565 57.2778 38.7565 56.5857C38.7565 55.9802 38.5835 55.5476 38.324 55.2016C38.0644 54.8555 37.7184 54.6825 37.1993 54.6825C36.7668 54.6825 36.4207 54.8555 36.0747 55.2016C35.8152 55.4611 35.6421 55.9801 35.6421 56.6722Z" fill="#354F9A"/>
<path d="M45.1577 59.2675H44.2061V54.6824H41.7838V59.2675H40.8322V53.9038H45.1577V59.2675Z" fill="#354F9A"/>
<path d="M48.8781 59.354C48.186 59.354 47.5804 59.0945 47.1479 58.6619C46.7153 58.1428 46.4558 57.5373 46.4558 56.7587V56.5856C46.4558 56.0666 46.5423 55.5475 46.8019 55.2015C46.9749 54.7689 47.3209 54.4229 47.667 54.2499C48.013 53.9903 48.4456 53.9038 48.8781 53.9038C49.5702 53.9038 50.0893 54.1633 50.5218 54.5959C50.8679 55.0284 51.1274 55.7205 51.1274 56.5856V56.9317H47.4939C47.4939 57.4508 47.667 57.8833 47.9265 58.2293C48.186 58.5754 48.6186 58.7484 49.0511 58.7484C49.3972 58.7484 49.6567 58.6619 49.8297 58.5754C50.0893 58.4024 50.2623 58.2293 50.4353 58.0563L50.9544 58.4889C50.4353 59.0079 49.7432 59.354 48.8781 59.354ZM48.7051 54.5959C48.359 54.5959 48.013 54.7689 47.7535 55.0284C47.4939 55.288 47.3209 55.634 47.3209 56.1531H50.0027V56.0666C50.0027 55.634 49.8297 55.2015 49.6567 55.0284C49.3972 54.6824 49.1376 54.5959 48.7051 54.5959Z" fill="#354F9A"/>
<path d="M56.4909 56.6722C56.4909 57.4507 56.3179 58.1428 55.9719 58.6619C55.6258 59.181 55.1068 59.4405 54.5012 59.4405C53.8091 59.4405 53.3765 59.2675 52.944 58.8349V61.4302H51.9924V53.9903H52.8575L52.944 54.5959C53.29 54.1633 53.8091 53.9038 54.5012 53.9038C55.1068 53.9038 55.6258 54.1633 56.0584 54.5959C56.3179 55.0284 56.4909 55.7205 56.4909 56.6722ZM55.5393 56.4991C55.5393 55.8936 55.4528 55.461 55.1933 55.0284C54.9337 54.6824 54.5877 54.5094 54.1551 54.5094C53.6361 54.5094 53.2035 54.7689 52.944 55.288V57.8833C53.2035 58.4024 53.6361 58.5754 54.2417 58.5754C54.6742 58.5754 55.0202 58.4024 55.2798 58.0563C55.4528 57.7103 55.5393 57.1912 55.5393 56.4991Z" fill="#354F9A"/>
<path d="M58.6533 55.7205H60.0375C60.6431 55.7205 61.1621 55.8936 61.5082 56.1531C61.8542 56.4126 62.0272 56.8452 62.0272 57.4508C62.0272 57.9698 61.8542 58.4024 61.5082 58.7484C61.1621 59.0945 60.6431 59.2675 60.0375 59.2675H57.7882V53.9038H58.7398V55.7205H58.6533ZM58.6533 56.4991V58.4889H60.0375C60.3835 58.4889 60.6431 58.4024 60.8161 58.2293C60.9891 58.0563 61.0756 57.7968 61.0756 57.5373C61.0756 57.2777 60.9891 57.0182 60.8161 56.8452C60.6431 56.6721 60.3835 56.5856 60.0375 56.5856H58.6533V56.4991ZM63.9305 59.2675H62.9789V53.9038H63.9305V59.2675Z" fill="#354F9A"/>
<path d="M71.4566 53.9038H72.4083V59.2675H71.4566V55.3745L68.9478 59.2675H67.9962V53.9038H68.9478V57.7968L71.4566 53.9038Z" fill="#354F9A"/>
<path d="M78.7251 54.2499C79.4172 54.2499 79.9362 54.5095 80.3688 54.942C80.8013 55.3746 80.9744 55.9802 80.9744 56.7588V56.8453C80.9744 57.3643 80.8879 57.7969 80.7148 58.2294C80.5418 58.662 80.2823 58.9215 79.8497 59.1811C79.5037 59.4406 79.0711 59.5271 78.5521 59.5271C77.86 59.5271 77.2544 59.2676 76.8218 58.835C76.3893 58.316 76.1298 57.7104 76.1298 56.9318V56.2397C76.1298 55.1151 76.3028 54.25 76.7353 53.5579C77.1679 52.8658 77.7735 52.5197 78.5521 52.3467C78.9846 52.2602 79.3307 52.1737 79.5037 52.0872C79.6767 52.0007 79.7632 51.8276 79.7632 51.5681H80.5418C80.5418 52.0007 80.4553 52.2602 80.2823 52.5197C80.1093 52.7793 79.7632 52.9523 79.4172 53.0388L78.7251 53.2118C78.206 53.2983 77.7735 53.5579 77.5139 53.9039C77.2544 54.2499 77.0814 54.596 76.9949 55.1151C77.4274 54.5095 78.033 54.2499 78.7251 54.2499ZM78.5521 54.942C78.1195 54.942 77.7735 55.1151 77.5139 55.3746C77.2544 55.6341 77.0814 56.0667 77.0814 56.5857V56.6722C77.0814 57.2778 77.2544 57.7104 77.5139 58.0564C77.7735 58.4025 78.1195 58.5755 78.5521 58.5755C78.9846 58.5755 79.3307 58.4025 79.5902 58.0564C79.8497 57.7104 80.0227 57.1913 80.0227 56.5857C80.0227 56.0667 79.8497 55.6341 79.5902 55.3746C79.3307 55.1151 78.9846 54.942 78.5521 54.942Z" fill="#354F9A"/>
<path d="M85.299 59.2676C85.2125 59.181 85.2125 59.008 85.2125 58.662C84.7799 59.0945 84.2609 59.3541 83.6553 59.3541C83.1362 59.3541 82.7037 59.181 82.3576 58.9215C82.0116 58.662 81.8386 58.2294 81.8386 57.7969C81.8386 57.2778 82.0116 56.8453 82.4441 56.4992C82.8767 56.1532 83.4823 56.0667 84.2609 56.0667H85.126V55.6341C85.126 55.2881 85.0395 55.0285 84.8664 54.8555C84.6934 54.6825 84.4339 54.596 84.0013 54.596C83.6553 54.596 83.3958 54.6825 83.2227 54.8555C82.9632 55.0285 82.8767 55.2016 82.8767 55.4611H81.9251C81.9251 55.2016 82.0116 54.942 82.1846 54.6825C82.3576 54.423 82.6172 54.2499 82.9632 54.0769C83.3092 53.9039 83.6553 53.8174 84.0013 53.8174C84.6069 53.8174 85.126 53.9904 85.472 54.2499C85.8181 54.5095 85.9911 54.942 85.9911 55.5476V57.9699C85.9911 58.489 86.0776 58.835 86.1641 59.181V59.2676H85.299ZM83.7418 58.5755C84.0013 58.5755 84.2609 58.489 84.5204 58.3159C84.7799 58.1429 84.953 57.9699 85.0395 57.7104V56.5857H84.3474C83.2227 56.5857 82.7037 56.9318 82.7037 57.5373C82.7037 57.7969 82.7902 58.0564 82.9632 58.2294C83.2227 58.489 83.4823 58.5755 83.7418 58.5755Z" fill="#354F9A"/>
<path d="M91.8733 53.9038V59.2675H90.9217V54.6824H89.1049L89.0184 56.6722C88.9319 57.6238 88.8454 58.2293 88.5859 58.6619C88.3263 59.0945 87.9803 59.2675 87.3747 59.2675H87.0287V58.4889H87.2882C87.5478 58.4889 87.8073 58.3159 87.8938 57.9698C87.9803 57.6238 88.0668 57.1047 88.1533 56.2396L88.2398 53.9903H91.8733V53.9038Z" fill="#354F9A"/>
<path d="M95.5081 59.354C94.816 59.354 94.2105 59.0945 93.7779 58.6619C93.3454 58.1428 93.0858 57.5373 93.0858 56.7587V56.5856C93.0858 56.0666 93.1723 55.5475 93.4319 55.2015C93.6049 54.7689 93.9509 54.4229 94.297 54.2499C94.643 53.9903 95.0756 53.9038 95.5081 53.9038C96.2002 53.9038 96.7193 54.1633 97.1518 54.5959C97.4979 55.0284 97.7574 55.7205 97.7574 56.5856V56.9317H94.1239C94.1239 57.4508 94.297 57.8833 94.5565 58.2293C94.816 58.5754 95.2486 58.7484 95.6811 58.7484C96.0272 58.7484 96.2867 58.6619 96.4597 58.5754C96.7193 58.4024 96.8923 58.2293 97.0653 58.0563L97.5844 58.4889C97.1518 59.0079 96.4597 59.354 95.5081 59.354ZM95.4216 54.5959C95.0756 54.5959 94.7295 54.7689 94.47 55.0284C94.2105 55.288 94.0374 55.634 94.0374 56.1531H96.7193V56.0666C96.7193 55.634 96.5462 55.2015 96.3732 55.0284C96.1137 54.6824 95.8542 54.5959 95.4216 54.5959Z" fill="#354F9A"/>
<path d="M102.6 54.6824H100.784V59.2675H99.832V54.6824H98.1017V53.9038H102.6V54.6824Z" fill="#354F9A"/>
<path d="M106.754 59.2676C106.668 59.181 106.668 59.008 106.668 58.662C106.235 59.0945 105.716 59.3541 105.111 59.3541C104.591 59.3541 104.159 59.181 103.813 58.9215C103.467 58.662 103.294 58.2294 103.294 57.7969C103.294 57.2778 103.467 56.8453 103.899 56.4992C104.332 56.1532 104.938 56.0667 105.716 56.0667H106.581V55.6341C106.581 55.2881 106.495 55.0285 106.322 54.8555C106.149 54.6825 105.889 54.596 105.457 54.596C105.111 54.596 104.851 54.6825 104.678 54.8555C104.418 55.0285 104.332 55.2016 104.332 55.4611H103.38C103.38 55.2016 103.467 54.942 103.64 54.6825C103.813 54.423 104.072 54.2499 104.418 54.0769C104.765 53.9039 105.111 53.8174 105.457 53.8174C106.062 53.8174 106.581 53.9904 106.927 54.2499C107.273 54.596 107.446 54.942 107.446 55.5476V57.9699C107.446 58.489 107.533 58.835 107.619 59.181V59.2676H106.754ZM105.197 58.5755C105.457 58.5755 105.716 58.489 105.976 58.3159C106.235 58.1429 106.408 57.9699 106.495 57.7104V56.5857H105.803C104.678 56.5857 104.159 56.9318 104.159 57.5373C104.159 57.7969 104.245 58.0564 104.418 58.2294C104.678 58.489 104.938 58.5755 105.197 58.5755Z" fill="#354F9A"/>
<path d="M116.962 56.8454C116.875 57.624 116.616 58.2296 116.097 58.6621C115.578 59.0947 114.886 59.3542 114.02 59.3542C113.069 59.3542 112.377 59.0082 111.858 58.4026C111.339 57.797 111.079 56.9319 111.079 55.8073V55.3747C111.079 54.6826 111.166 54.0771 111.425 53.558C111.685 53.0389 112.031 52.6064 112.463 52.3469C112.896 52.0873 113.415 51.9143 114.02 51.9143C114.886 51.9143 115.491 52.1738 116.01 52.6064C116.529 53.0389 116.789 53.6445 116.875 54.5096H115.405C115.405 54.0771 115.232 53.731 115.059 53.4715C114.799 53.2985 114.539 53.1255 114.02 53.1255C113.501 53.1255 113.155 53.2985 112.896 53.6445C112.636 53.9906 112.55 54.5096 112.55 55.2882V55.8073C112.55 56.5859 112.636 57.1915 112.896 57.5375C113.155 57.8835 113.501 58.0566 114.02 58.0566C114.453 58.0566 114.799 57.9701 115.059 57.7105C115.318 57.5375 115.405 57.1915 115.405 56.7589H116.962V56.8454Z" fill="#354F9A"/>
<path d="M120.337 59.3541C119.558 59.3541 118.952 59.0945 118.433 58.662C117.914 58.1429 117.655 57.5373 117.655 56.7587V56.5857C117.655 56.0667 117.741 55.5476 118.001 55.115C118.174 54.6825 118.52 54.3364 118.866 54.1634C119.212 53.9039 119.645 53.8174 120.164 53.8174C120.856 53.8174 121.461 54.0769 121.894 54.5095C122.326 54.942 122.499 55.6341 122.499 56.4992V57.1048H119.125C119.212 57.4508 119.298 57.7104 119.558 57.9699C119.818 58.1429 120.077 58.3159 120.423 58.3159C120.942 58.3159 121.375 58.1429 121.721 57.7104L122.413 58.489C122.24 58.835 121.894 59.008 121.548 59.181C121.202 59.2676 120.769 59.3541 120.337 59.3541ZM120.164 54.942C119.904 54.942 119.645 55.0285 119.472 55.2016C119.298 55.3746 119.212 55.6341 119.125 56.0667H121.115V55.9801C121.115 55.6341 121.029 55.3746 120.856 55.2016C120.683 55.0285 120.51 54.942 120.164 54.942Z" fill="#354F9A"/>
<path d="M123.451 59.2675V53.9038H125.7C126.392 53.9038 126.998 53.9903 127.344 54.2499C127.69 54.5094 127.949 54.8554 127.949 55.3745C127.949 55.634 127.863 55.807 127.69 56.0666C127.517 56.2396 127.257 56.4126 126.998 56.4991C127.344 56.5856 127.69 56.6722 127.863 56.9317C128.122 57.1047 128.209 57.3642 128.209 57.7103C128.209 58.2293 128.036 58.5754 127.69 58.8349C127.344 59.0945 126.738 59.2675 126.046 59.2675H123.451ZM124.835 56.0666H125.7C126.219 56.0666 126.478 55.8936 126.478 55.5475C126.478 55.3745 126.392 55.2015 126.305 55.115C126.132 55.0284 125.959 55.0284 125.7 55.0284H124.921V56.0666H124.835ZM124.835 57.0182V58.0563H125.959C126.479 58.0563 126.738 57.8833 126.738 57.5373C126.738 57.1912 126.478 57.0182 126.046 57.0182H124.835Z" fill="#354F9A"/>
<path d="M132.189 59.2676C132.102 59.1811 132.102 59.0081 132.016 58.7486C131.67 59.0946 131.237 59.3542 130.632 59.3542C130.113 59.3542 129.68 59.1811 129.334 58.9216C128.988 58.5756 128.815 58.2295 128.815 57.797C128.815 57.1914 128.988 56.7588 129.421 56.4993C129.853 56.1533 130.459 56.0668 131.237 56.0668H131.929V55.7207C131.929 55.4612 131.843 55.2882 131.756 55.1151C131.67 54.9421 131.41 54.8556 131.151 54.8556C130.891 54.8556 130.718 54.9421 130.545 55.0286C130.372 55.1151 130.372 55.2881 130.372 55.4612H128.901C128.901 55.1151 128.988 54.8556 129.161 54.5961C129.334 54.3365 129.594 54.1635 129.94 53.9905C130.286 53.8175 130.718 53.731 131.151 53.731C131.843 53.731 132.362 53.904 132.708 54.25C133.054 54.5961 133.314 55.0286 133.314 55.6342V57.97C133.314 58.489 133.4 58.8351 133.487 59.0946V59.1811H132.189V59.2676ZM130.978 58.2295C131.151 58.2295 131.41 58.143 131.583 58.0565C131.756 57.97 131.929 57.797 132.016 57.7104V56.7588H131.497C130.805 56.7588 130.372 57.0184 130.372 57.5374V57.6239C130.372 57.797 130.459 57.97 130.545 58.0565C130.632 58.2295 130.805 58.2295 130.978 58.2295Z" fill="#354F9A"/>
<path d="M136.686 58.2294C136.946 58.2294 137.205 58.1429 137.292 57.9699C137.465 57.7969 137.551 57.6239 137.551 57.3643H138.849C138.849 57.7104 138.762 58.0564 138.589 58.4025C138.416 58.662 138.157 58.9215 137.811 59.0945C137.465 59.2676 137.119 59.3541 136.686 59.3541C135.908 59.3541 135.302 59.0945 134.869 58.662C134.437 58.1429 134.177 57.5373 134.177 56.6722V56.5857C134.177 55.7206 134.437 55.115 134.869 54.596C135.302 54.0769 135.908 53.8174 136.686 53.8174C137.378 53.8174 137.897 53.9904 138.33 54.423C138.762 54.769 138.935 55.2881 138.935 55.9801H137.638C137.638 55.7206 137.551 55.4611 137.378 55.2881C137.205 55.115 137.032 55.0285 136.686 55.0285C136.34 55.0285 136.081 55.115 135.908 55.3746C135.735 55.6341 135.648 55.9802 135.648 56.5857V56.7587C135.648 57.2778 135.735 57.7104 135.908 57.9699C136.081 58.0564 136.34 58.2294 136.686 58.2294Z" fill="#354F9A"/>
<path d="M144.212 55.0284H142.482V59.2675H141.011V55.0284H139.367V53.9038H144.212V55.0284Z" fill="#354F9A"/>
<path d="M144.56 56.4992C144.56 55.9802 144.646 55.4611 144.906 55.115C145.079 54.6825 145.425 54.3364 145.771 54.1634C146.117 53.9039 146.636 53.8174 147.068 53.8174C147.76 53.8174 148.366 54.0769 148.799 54.5095C149.231 54.942 149.491 55.5476 149.577 56.3262V56.6722C149.577 57.4508 149.318 58.1429 148.885 58.662C148.452 59.181 147.847 59.4406 147.068 59.4406C146.29 59.4406 145.684 59.181 145.252 58.662C144.819 58.1429 144.56 57.4508 144.56 56.4992ZM145.944 56.6722C145.944 57.1913 146.03 57.5373 146.203 57.7969C146.376 58.0564 146.636 58.2294 146.982 58.2294C147.328 58.2294 147.587 58.0564 147.76 57.7969C147.933 57.5373 148.02 57.1048 148.02 56.4992C148.02 55.9802 147.933 55.6341 147.76 55.3746C147.587 55.115 147.328 54.942 146.982 54.942C146.636 54.942 146.376 55.115 146.203 55.3746C146.117 55.6341 145.944 56.0667 145.944 56.6722Z" fill="#354F9A"/>
<path d="M155.113 59.2675H153.642V55.0284H151.825V59.2675H150.528V53.9038H155.199V59.2675H155.113Z" fill="#354F9A"/>
<path d="M156.064 56.4992C156.064 55.9802 156.151 55.4611 156.41 55.115C156.583 54.6825 156.929 54.3364 157.275 54.1634C157.621 53.9039 158.14 53.8174 158.573 53.8174C159.265 53.8174 159.871 54.0769 160.303 54.5095C160.736 54.942 160.995 55.5476 161.082 56.3262V56.6722C161.082 57.4508 160.822 58.1429 160.39 58.662C159.957 59.181 159.352 59.4406 158.573 59.4406C157.794 59.4406 157.189 59.181 156.756 58.662C156.237 58.1429 156.064 57.4508 156.064 56.4992ZM157.448 56.6722C157.448 57.1913 157.535 57.5373 157.708 57.7969C157.881 58.0564 158.14 58.2294 158.486 58.2294C158.832 58.2294 159.092 58.0564 159.265 57.7969C159.438 57.5373 159.525 57.1048 159.525 56.4992C159.525 55.9802 159.438 55.6341 159.265 55.3746C159.092 55.115 158.832 54.942 158.486 54.942C158.14 54.942 157.881 55.115 157.708 55.3746C157.535 55.6341 157.448 56.0667 157.448 56.6722Z" fill="#354F9A"/>
<path d="M166.532 53.9038V59.2675H165.061V55.0284H163.764L163.677 56.6722C163.591 57.5373 163.418 58.2293 163.158 58.5754C162.899 59.0079 162.466 59.181 161.86 59.181H161.341V58.0563H161.514C161.774 58.0563 161.947 57.8833 162.12 57.6238C162.206 57.3642 162.293 56.8452 162.379 56.1531L162.466 53.9038H166.532Z" fill="#354F9A"/>
<path d="M169.128 55.4612H170.167C170.599 55.4612 171.032 55.5477 171.378 55.7207C171.724 55.8937 171.983 56.0667 172.156 56.4128C172.329 56.6723 172.416 57.0184 172.416 57.4509C172.416 58.0565 172.243 58.489 171.81 58.8351C171.378 59.1811 170.859 59.3541 170.08 59.3541H167.658V53.9905H169.128V55.4612ZM169.128 56.5858V58.0565H170.167C170.426 58.0565 170.686 57.97 170.859 57.8835C171.032 57.7104 171.118 57.5374 171.118 57.3644C171.118 57.1049 171.032 56.9318 170.859 56.8453C170.686 56.6723 170.513 56.6723 170.167 56.6723H169.128V56.5858Z" fill="#354F9A"/>
</svg>
